<?xml version="1.0" standalone="no"?>
<!DOCTYPE svg PUBLIC "-//W3C//DTD SVG 20010904//EN"
 "http://www.w3.org/TR/2001/REC-SVG-20010904/DTD/svg10.dtd">
<svg version="1.0" xmlns="http://www.w3.org/2000/svg"
 width="166.000000pt" height="166.000000pt" viewBox="0 0 166.000000 166.000000"
 preserveAspectRatio="xMidYMid meet">
<metadata>
Created by potrace 1.11, written by Peter Selinger 2001-2013
</metadata>
<g transform="translate(0.000000,166.000000) scale(0.100000,-0.100000)"
fill="#000000" stroke="none">
<path d="M788 1262 c-33 -21 -129 -78 -188 -110 -83 -46 -80 -43 -80 -99 0
-51 -1 -53 -45 -79 l-45 -26 0 -178 c0 -160 2 -178 17 -183 10 -3 98 -53 197
-110 l178 -104 149 85 c82 46 149 90 150 96 1 6 2 23 3 38 0 15 7 33 14 40 6
6 12 18 12 25 0 7 9 17 19 23 46 24 48 30 47 206 l-1 168 -195 113 c-107 62
-197 112 -200 112 -3 0 -17 -8 -32 -17z"/>
</g>
</svg>
