<?xml version="1.0" standalone="no"?>
<!DOCTYPE svg PUBLIC "-//W3C//DTD SVG 20010904//EN"
 "http://www.w3.org/TR/2001/REC-SVG-20010904/DTD/svg10.dtd">
<svg version="1.0" xmlns="http://www.w3.org/2000/svg"
 width="91.000000pt" height="91.000000pt" viewBox="0 0 91.000000 91.000000"
 preserveAspectRatio="xMidYMid meet">
<metadata>
Created by potrace 1.11, written by Peter Selinger 2001-2013
</metadata>
<g transform="translate(0.000000,91.000000) scale(0.100000,-0.100000)"
fill="#000000" stroke="none">
<path d="M288 822 l-148 -87 0 -52 c0 -51 -1 -53 -45 -79 l-45 -26 2 -176 3
-176 85 -49 c47 -27 109 -63 139 -79 29 -16 78 -45 109 -62 l55 -33 141 80
c151 85 166 98 159 126 -7 26 35 100 66 116 l27 13 -1 173 0 173 -195 113
c-107 62 -197 112 -200 112 -3 -1 -71 -40 -152 -87z"/>
</g>
</svg>
